<svg xmlns:dc="http://purl.org/dc/elements/1.1/" xmlns:cc="http://creativecommons.org/ns#" xmlns:rdf="http://www.w3.org/1999/02/22-rdf-syntax-ns#" xmlns:svg="http://www.w3.org/2000/svg" xmlns="http://www.w3.org/2000/svg" xmlns:xlink="http://www.w3.org/1999/xlink" id="svg209792" viewBox="0 0 1024 768" height="768px" width="1024px" version="1.1">
  <metadata id="metadata209798">
    <rdf:rdf>
      <cc:work rdf:about="">
        <dc:format>image/svg+xml</dc:format>
        <dc:type rdf:resource="http://purl.org/dc/dcmitype/StillImage"></dc:type>
      </cc:work>
    </rdf:rdf>
  </metadata>
  <defs id="defs209796"></defs>
  <linearGradient spreadMethod="pad" y2="30%" x2="-10%" y1="120%" x1="30%" id="3d_gradient2-logo-8f2be217-05ee-4723-a6cf-551dcef1853a">
    <stop id="stop209773" stop-opacity="1" stop-color="#ffffff" offset="0%"></stop>
    <stop id="stop209775" stop-opacity="1" stop-color="#000000" offset="100%"></stop>
  </linearGradient>
  <linearGradient gradientTransform="rotate(-30)" spreadMethod="pad" y2="30%" x2="-10%" y1="120%" x1="30%" id="3d_gradient3-logo-8f2be217-05ee-4723-a6cf-551dcef1853a">
    <stop id="stop209778" stop-opacity="1" stop-color="#ffffff" offset="0%"></stop>
    <stop id="stop209780" stop-opacity="1" stop-color="#cccccc" offset="50%"></stop>
    <stop id="stop209782" stop-opacity="1" stop-color="#000000" offset="100%"></stop>
  </linearGradient>
  <g id="logo-group">
    <image xlink:href="" id="container" x="272" y="144" width="480" height="480" style="display: none;" transform="translate(0 0)"></image>
    <g id="logo-center" transform="translate(-1.1368683772161603e-13 0)">
      <image xlink:href="" id="icon_container" x="0" y="0" style="display: none;"></image>
      <g id="slogan" style="font-style:normal;font-weight:400;font-size:32px;line-height:1;font-family:Quicksand;font-variant-ligatures:none;text-align:center;text-anchor:middle" transform="translate(0 0)"></g>
      <g id="title" style="font-style:normal;font-weight:normal;font-size:72px;line-height:1;font-family:'Brandmark Sans 11 Color Shadow';font-variant-ligatures:normal;text-align:center;text-anchor:middle" transform="translate(0 0)">
        <g id="path209801" aria-label="^T" transform="translate(0 283.024387745) translate(253.75412799999998 77.86196532000001) scale(0.67) translate(-234.61312 72.096904)"> <rect x="88.92764" y="64" class="c1" width="15.98417" height="72" transform="translate(166.780631 -136.096904)" stroke-width="0" stroke-linejoin="miter" stroke-miterlimit="2" fill="#d1d3da" stroke="#d1d3da"></rect> <rect x="67.83249" y="64.00027" class="c2" width="58.17456" height="13.85293" transform="translate(166.780631 -136.096904)" stroke-width="0" stroke-linejoin="miter" stroke-miterlimit="2" fill="#8a6a8a" stroke="#8a6a8a"></rect> <linearGradient id="c8a5c485-2af6-4183-a287-df49ecabd37f" gradientUnits="userSpaceOnUse" x1="96.91972" y1="92.4425" x2="96.91972" y2="124.24182" gradientTransform="matrix(1 0 0 -1 0 202)"> <stop offset="0" style="stop-color:#000000;stop-opacity:0"></stop> <stop offset="0.32525" style="stop-color:#000000;stop-opacity:0.29272"></stop> <stop offset="0.72238" style="stop-color:#000000;stop-opacity:0.65014"></stop> <stop offset="1" style="stop-color:#000000;stop-opacity:0.9"></stop> </linearGradient> <rect x="88.92764" y="77.8532" class="highlight" fill="url(#c8a5c485-2af6-4183-a287-df49ecabd37f)" width="15.98417" height="58.14674" transform="translate(166.780631 -136.096904)" stroke-width="0" stroke-linejoin="miter" stroke-miterlimit="2" opacity="0.73"></rect> </g>
        <g id="path209803" aria-label="r" transform="translate(0 283.024387745) translate(306.37296660000004 89.80834471) scale(0.67) translate(-293.1487 54.266487)"> <path class="c1" d="M111.9397,82.1179v13.78455c-5.56665,0-10.09473,4.52802-10.09497,10.09473h0.00024v29.98432H88.06055 v-29.98396h-0.00049C88.06007,92.83012,98.77247,82.1179,111.9397,82.1179z" transform="translate(205.08864 -136.384387)" stroke-width="0" stroke-linejoin="miter" stroke-miterlimit="2" fill="#d1d3da" stroke="#d1d3da"></path> </g>
        <g id="path209805" aria-label="e" transform="translate(0 283.024387745) translate(340.9697767 89.80834471) scale(0.67) translate(-324.78573 54.266487)"> <path class="c1" d="M127.05489,114.70634c0.34033-1.6922,0.51074-3.43768,0.51074-5.22571 c0-1.67102-0.14893-3.29944-0.44678-4.88525c-2.29883-12.87817-13.59131-22.6806-27.11914-22.6806 c-15.19824,0-27.56543,12.36743-27.56543,27.56586c0,15.1983,12.36719,27.56568,27.56543,27.56568 c11.95264,0,22.14844-7.6524,25.96973-18.30616h-15.83691c-2.51221,2.74585-6.12012,4.47003-10.13281,4.47003 c-5.71484,0-10.63232-3.52277-12.68652-8.50385h25.38428H127.05489z M87.17501,104.59538 c1.96924-5.16193,6.98193-8.84454,12.82471-8.84454c5.854,0,10.85645,3.68262,12.83594,8.84454H87.17501z" transform="translate(252.35145 -136.181267)" stroke-width="0" stroke-linejoin="miter" stroke-miterlimit="2" fill="#d1d3da" stroke="#d1d3da"></path> </g>
        <g id="path209807" aria-label="l" transform="translate(0 283.024387745) translate(399.0865281 77.86196532000001) scale(0.67) translate(-391.52715 72.096904)"> <path class="c1" d="M106.92648,136H93.07352V64h13.85295V136z" transform="translate(298.45363 -136.096904)" stroke-width="0" stroke-linejoin="miter" stroke-miterlimit="2" fill="#d1d3da" stroke="#d1d3da"></path> </g>
        <g id="path209809" aria-label="l" transform="translate(0 283.024387745) translate(430.5765281 77.86196532000001) scale(0.67) translate(-418.52715 72.096904)"> <path class="c1" d="M106.92648,136H93.07352V64h13.85295V136z" transform="translate(325.45363 -136.096904)" stroke-width="0" stroke-linejoin="miter" stroke-miterlimit="2" fill="#d1d3da" stroke="#d1d3da"></path> </g>
        <g id="path209811" aria-label="e" transform="translate(0 283.024387745) translate(460.9730546 89.80834471) scale(0.67) translate(-443.8951 54.266487)"> <path class="c1" d="M127.05489,114.70634c0.34033-1.6922,0.51074-3.43768,0.51074-5.22571 c0-1.67102-0.14893-3.29944-0.44678-4.88525c-2.29883-12.87817-13.59131-22.6806-27.11914-22.6806 c-15.19824,0-27.56543,12.36743-27.56543,27.56586c0,15.1983,12.36719,27.56568,27.56543,27.56568 c11.95264,0,22.14844-7.6524,25.96973-18.30616h-15.83691c-2.51221,2.74585-6.12012,4.47003-10.13281,4.47003 c-5.71484,0-10.63232-3.52277-12.68652-8.50385h25.38428H127.05489z M87.17501,104.59538 c1.96924-5.16193,6.98193-8.84454,12.82471-8.84454c5.854,0,10.85645,3.68262,12.83594,8.84454H87.17501z" transform="translate(371.46082 -136.181267)" stroke-width="0" stroke-linejoin="miter" stroke-miterlimit="2" fill="#d1d3da" stroke="#d1d3da"></path> </g>
        <g id="path209813" aria-label="n" transform="translate(0 283.024387745) translate(518.2457735 89.80834471) scale(0.67) translate(-509.37677 54.266487)"> <path class="c1" d="M127.05909,108.92228l-0.00049,27.05921h-13.84961v-27.06886 c-0.00537-7.27924-5.92871-13.19904-13.20923-13.19904c-7.28394,0-13.20874,5.92499-13.20874,13.20868h-0.00049v27.05921H72.94093 l0.00049-27.05921c0-14.9201,12.13818-27.05829,27.05835-27.05829S127.05909,94.00217,127.05909,108.92228z" transform="translate(436.43584 -136.130467)" stroke-width="0" stroke-linejoin="miter" stroke-miterlimit="2" fill="#d1d3da" stroke="#d1d3da"></path> </g>
        <g id="path209815" aria-label="i" transform="translate(0 283.024387745) translate(574.9800536 75.13507403) scale(0.67) translate(-574.0548 76.166891)"> <path class="c1" d="M93.22384,83.1981h13.55225v52.78339H93.22384V83.1981z" transform="translate(482.39443 -137.707701)" stroke-width="0" stroke-linejoin="miter" stroke-miterlimit="2" fill="#d1d3da" stroke="#d1d3da"></path> <path class="c2" d="M100.00021,78.22019c4.60596,0,8.33936-3.73383,8.33936-8.33972s-3.7334-8.33966-8.33936-8.33966 s-8.33984,3.73376-8.33984,8.33966S95.39424,78.22019,100.00021,78.22019z" transform="translate(482.39443 -137.707701)" stroke-width="0" stroke-linejoin="miter" stroke-miterlimit="2" fill="#8a6a8a" stroke="#8a6a8a"></path> </g>
        <g id="path209817" aria-label="l" transform="translate(0 283.024387745) translate(608.1684031000001 77.86196532000001) scale(0.67) translate(-603.58965 72.096904)"> <path class="c1" d="M106.92648,136H93.07352V64h13.85295V136z" transform="translate(510.51613 -136.096904)" stroke-width="0" stroke-linejoin="miter" stroke-miterlimit="2" fill="#d1d3da" stroke="#d1d3da"></path> </g>
        <g id="path209819" aria-label="t" transform="translate(0 283.024387745) translate(639.4089688000001 77.86196532000001) scale(0.67) translate(-630.21736 72.096904)"> <path class="c1" d="M113.17974,126.56028v13.85839c-14.53662,0-26.35938-11.82324-26.35938-26.35937V68.41477h13.8584v18.70361 h12.20996v12.79199h-12.20996v14.14893C100.67876,120.94016,106.2022,126.56028,113.17974,126.56028z" transform="translate(543.397 -140.511674)" stroke-width="0" stroke-linejoin="miter" stroke-miterlimit="2" fill="#d1d3da" stroke="#d1d3da"></path> </g>
        <g id="path209821" aria-label="o" transform="translate(0 283.024387745) translate(676.7444642 89.80834471) scale(0.67) translate(-665.94198 54.266487)"> <path class="c1" d="M99.99948,137.0463c-15.12766,0-27.43525-12.30759-27.43525-27.43525 c0-15.1287,12.30759-27.43628,27.43525-27.43628c15.1287,0,27.43629,12.30758,27.43629,27.43628 C127.43577,124.73871,115.12818,137.0463,99.99948,137.0463z M99.99948,95.94618c-7.53435,0-13.66383,6.13052-13.66383,13.66486 s6.12948,13.66383,13.66383,13.66383s13.66486-6.12948,13.66486-13.66383S107.53383,95.94618,99.99948,95.94618z" transform="translate(593.37775 -136.441257)" stroke-width="0" stroke-linejoin="miter" stroke-miterlimit="2" fill="#d1d3da" stroke="#d1d3da"></path> </g>
        <g id="path209823" aria-label="n" transform="translate(0 283.024387745) translate(734.0171764 89.80834471) scale(0.67) translate(-731.42364 54.266487)"> <path class="c1" d="M127.05909,108.92228l-0.00049,27.05921h-13.84961v-27.06886 c-0.00537-7.27924-5.92871-13.19904-13.20923-13.19904c-7.28394,0-13.20874,5.92499-13.20874,13.20868h-0.00049v27.05921H72.94093 l0.00049-27.05921c0-14.9201,12.13818-27.05829,27.05835-27.05829S127.05909,94.00217,127.05909,108.92228z" transform="translate(658.48271 -136.130467)" stroke-width="0" stroke-linejoin="miter" stroke-miterlimit="2" fill="#d1d3da" stroke="#d1d3da"></path> </g>
                  </g>
      <image xlink:href="" id="icon" x="0" y="0" style="display: none;"></image>
    </g>
  </g>
</svg>