<svg width="128" height="128" viewBox="0 0 128 128" fill="none" xmlns="http://www.w3.org/2000/svg">
    <path
        d="M69.0901 4.24001C68.0101 5.20001 59.6101 21.87 59.6101 21.87L53.3601 47.08L77.6801 44.85C77.6801 44.85 97.9101 7.23001 98.3201 6.36001C99.0501 4.78001 99.4401 4.13001 96.6501 4.13001C93.8601 4.12001 70.1001 3.34001 69.0901 4.24001Z"
        fill="#176CC7" />
    <path
        d="M81.6799 43.29C80.4699 42.64 44.8299 42.08 43.9899 43.29C43.2299 44.39 43.6599 50.16 43.9499 50.85C44.4699 52.05 55.9799 57.28 55.9799 57.28L55.7599 59.66C55.7599 59.66 56.6999 59.9 63.3899 59.9C70.0799 59.9 71.3999 59.56 71.3999 59.56L71.4199 57.41C71.4199 57.41 81.7799 52.37 82.2999 51.67C82.7399 51.09 82.8899 43.94 81.6799 43.29ZM71.0699 52.41C71.0699 52.41 71.3999 50.94 70.7099 50.6C70.0199 50.25 58.1799 50.41 57.2399 50.46C56.2999 50.51 56.2999 52.19 56.2999 52.19L48.6999 47.66V46.92L76.9999 47.12L77.0499 47.96L71.0699 52.41Z"
        fill="#CECDD2" />
    <path
        d="M59.26 51.17C58.32 51.17 57.78 52.15 57.78 53.84C57.78 55.42 58.32 56.75 59.51 56.65C60.49 56.57 60.83 55.07 60.74 53.74C60.65 52.16 60.45 51.17 59.26 51.17Z"
        fill="#FDFFFF" />
    <path
        d="M28.97 91.89C28.97 115.85 51.02 126.02 65.43 125.59C82.22 125.09 99.94 112.35 98.79 89.49C97.7 67.83 79.33 58.2 63.55 58.31C45.21 58.45 28.97 70.96 28.97 91.89Z"
        fill="#CECDD2" />
    <path
        d="M64.5299 121.13C64.2799 121.13 64.0199 121.13 63.7699 121.12C56.2699 120.87 48.8599 117.71 43.4399 112.46C37.6399 106.84 34.4599 99.24 34.4999 91.07C34.5899 71.12 52.0299 61.87 63.8599 61.87H63.9599C79.9899 61.94 93.1499 74.4 93.5199 91.29C93.6799 98.81 90.5999 106.7 84.5599 112.64C78.9199 118.17 71.4399 121.13 64.5299 121.13ZM63.8399 65.19C53.2299 65.19 37.5399 73.87 37.4999 91.07C37.4699 103.93 47.4299 117.15 64.0199 117.71C70.3399 117.91 76.8499 115.49 82.1099 110.32C87.5699 104.95 90.6399 98.03 90.5299 91.33C90.2699 76.8 78.3899 65.24 63.9699 65.17C63.9499 65.17 63.8699 65.19 63.8399 65.19Z"
        fill="#9B9B9D" />
    <path
        d="M58.0901 61.47C57.4001 60.52 50.3301 60.79 42.7201 67.34C35.1601 73.85 34.0301 81.05 35.3901 81.43C36.9401 81.86 38.8301 74.9 45.3601 69.05C51.3601 63.7 59.4601 63.36 58.0901 61.47ZM87.8801 87.72C85.4701 88.06 87.9701 95.28 82.3801 103.36C77.5301 110.37 72.0301 112.91 72.6701 114.45C73.5301 116.51 82.3401 111.38 86.4201 103.02C90.1101 95.46 89.6701 87.47 87.8801 87.72Z"
        fill="#FEFFFA" />
    <path
        d="M25.5099 3.71999C24.8799 4.29999 48.9699 47.2 48.9699 47.2C48.9699 47.2 53.0099 47.72 62.0299 47.8C71.0499 47.88 75.5199 47.28 75.5199 47.28C75.5199 47.28 56.7899 4.14999 55.6699 3.71999C55.1199 3.49999 47.6999 3.41999 40.4499 3.33999C33.1899 3.24999 26.1099 3.15999 25.5099 3.71999Z"
        fill="#2E9DF4" />
    <path
        d="M56.8499 86.35C57.8899 86.36 58.8199 84.95 59.6799 84.09C61.5099 82.25 63.4299 80.79 65.6199 82.77C70.9999 87.66 60.1999 92.62 56.0999 99.4C53.0399 104.46 52.4199 108.35 53.2699 109.39C54.1199 110.43 74.8099 110.38 75.0899 109.86C75.3699 109.34 75.6599 102.41 75.1799 102.08C74.6999 101.75 64.5299 101.94 64.5299 101.94C64.5299 101.94 65.3799 99.96 68.8699 96.94C72.6999 93.63 75.7699 89.08 74.9499 83.7C73.2499 72.58 62.0499 72.17 57.1999 76.04C52.4699 79.81 53.4899 86.31 56.8499 86.35Z"
        fill="#9B9B9D" />
</svg>